<svg xmlns="http://www.w3.org/2000/svg" viewBox="0 0 100 100" width="100" height="100">
  <title>Sefaria Reader</title>
  <g fill="#000000">
    <path d="M28 18h44a6 6 0 0 1 6 6v58a4 4 0 0 1-4 4H26a4 4 0 0 1-4-4V24a6 6 0 0 1 6-6zm0 8a2 2 0 0 0-2 2v46h48V28a2 2 0 0 0-2-2H28z" />
    <rect x="32" y="26" width="36" height="6" rx="3" />
    <rect x="32" y="44" width="30" height="4" rx="2" />
    <rect x="32" y="54" width="30" height="4" rx="2" />
    <rect x="32" y="64" width="19" height="4" rx="2" />
    <path d="M70 44h10v34l-5-5-5 5V44z" />
  </g>
</svg>
